<mxfile host="Electron" modified="2023-09-22T16:36:23.000Z" agent="Mozilla/5.0 (Windows NT 10.0; Win64; x64) AppleWebKit/537.36 (KHTML, like Gecko) draw.io/21.7.5 Chrome/114.0.5735.289 Electron/25.8.1 Safari/537.36" etag="LwM-rlBH96Q7wojr55Ha" version="21.7.5" type="device">
  <diagram id="C5RBs43oDa-KdzZeNtuy" name="Page-1">
    <mxGraphModel dx="780" dy="544" grid="1" gridSize="10" guides="1" tooltips="1" connect="1" arrows="1" fold="1" page="1" pageScale="1" pageWidth="827" pageHeight="1169" math="0" shadow="0">
      <root>
        <mxCell id="WIyWlLk6GJQsqaUBKTNV-0" />
        <mxCell id="WIyWlLk6GJQsqaUBKTNV-1" parent="WIyWlLk6GJQsqaUBKTNV-0" />
        <mxCell id="jfW_pCBlOSSHhbzhOIhk-0" value="&lt;font style=&quot;font-size: 18px;&quot;&gt;MASCOTA&lt;/font&gt;" style="rounded=0;whiteSpace=wrap;html=1;" parent="WIyWlLk6GJQsqaUBKTNV-1" vertex="1">
          <mxGeometry x="60" y="265" width="170" height="110" as="geometry" />
        </mxCell>
        <mxCell id="jfW_pCBlOSSHhbzhOIhk-1" value="" style="endArrow=none;html=1;rounded=0;entryX=0;entryY=0.5;entryDx=0;entryDy=0;exitX=1;exitY=0;exitDx=0;exitDy=0;" parent="WIyWlLk6GJQsqaUBKTNV-1" source="jfW_pCBlOSSHhbzhOIhk-0" target="jfW_pCBlOSSHhbzhOIhk-2" edge="1">
          <mxGeometry width="50" height="50" relative="1" as="geometry">
            <mxPoint x="240" y="200" as="sourcePoint" />
            <mxPoint x="340" y="80" as="targetPoint" />
          </mxGeometry>
        </mxCell>
        <mxCell id="jfW_pCBlOSSHhbzhOIhk-2" value="&lt;font style=&quot;font-size: 18px;&quot;&gt;&lt;u&gt;codi_mascota&lt;/u&gt;&lt;/font&gt;" style="ellipse;whiteSpace=wrap;html=1;" parent="WIyWlLk6GJQsqaUBKTNV-1" vertex="1">
          <mxGeometry x="470" y="30" width="240" height="80" as="geometry" />
        </mxCell>
        <mxCell id="jfW_pCBlOSSHhbzhOIhk-3" value="" style="endArrow=none;html=1;rounded=0;entryX=0;entryY=0.5;entryDx=0;entryDy=0;exitX=1;exitY=0.25;exitDx=0;exitDy=0;" parent="WIyWlLk6GJQsqaUBKTNV-1" source="jfW_pCBlOSSHhbzhOIhk-0" target="jfW_pCBlOSSHhbzhOIhk-4" edge="1">
          <mxGeometry width="50" height="50" relative="1" as="geometry">
            <mxPoint x="240" y="220" as="sourcePoint" />
            <mxPoint x="360" y="190" as="targetPoint" />
          </mxGeometry>
        </mxCell>
        <mxCell id="jfW_pCBlOSSHhbzhOIhk-4" value="&lt;font style=&quot;font-size: 18px;&quot;&gt;nom_mascota&lt;/font&gt;" style="ellipse;whiteSpace=wrap;html=1;" parent="WIyWlLk6GJQsqaUBKTNV-1" vertex="1">
          <mxGeometry x="470" y="150" width="240" height="80" as="geometry" />
        </mxCell>
        <mxCell id="jfW_pCBlOSSHhbzhOIhk-5" value="" style="endArrow=none;html=1;rounded=0;entryX=0;entryY=0.5;entryDx=0;entryDy=0;exitX=1;exitY=0.5;exitDx=0;exitDy=0;" parent="WIyWlLk6GJQsqaUBKTNV-1" source="jfW_pCBlOSSHhbzhOIhk-0" target="jfW_pCBlOSSHhbzhOIhk-6" edge="1">
          <mxGeometry width="50" height="50" relative="1" as="geometry">
            <mxPoint x="250" y="460" as="sourcePoint" />
            <mxPoint x="350" y="340" as="targetPoint" />
          </mxGeometry>
        </mxCell>
        <mxCell id="jfW_pCBlOSSHhbzhOIhk-6" value="&lt;font style=&quot;font-size: 18px;&quot;&gt;tipus&lt;/font&gt;" style="ellipse;whiteSpace=wrap;html=1;" parent="WIyWlLk6GJQsqaUBKTNV-1" vertex="1">
          <mxGeometry x="480" y="270" width="240" height="80" as="geometry" />
        </mxCell>
        <mxCell id="jfW_pCBlOSSHhbzhOIhk-7" value="" style="endArrow=none;html=1;rounded=0;exitX=1;exitY=0.75;exitDx=0;exitDy=0;entryX=0;entryY=0.5;entryDx=0;entryDy=0;" parent="WIyWlLk6GJQsqaUBKTNV-1" edge="1">
          <mxGeometry width="50" height="50" relative="1" as="geometry">
            <mxPoint x="230" y="340" as="sourcePoint" />
            <mxPoint x="480" y="412.5" as="targetPoint" />
          </mxGeometry>
        </mxCell>
        <mxCell id="jfW_pCBlOSSHhbzhOIhk-8" value="&lt;font style=&quot;font-size: 18px;&quot;&gt;nom_propietari&lt;/font&gt;" style="ellipse;whiteSpace=wrap;html=1;" parent="WIyWlLk6GJQsqaUBKTNV-1" vertex="1">
          <mxGeometry x="480" y="380" width="240" height="80" as="geometry" />
        </mxCell>
        <mxCell id="jfW_pCBlOSSHhbzhOIhk-9" value="" style="endArrow=none;html=1;rounded=0;entryX=0.023;entryY=0.64;entryDx=0;entryDy=0;entryPerimeter=0;exitX=1;exitY=1;exitDx=0;exitDy=0;" parent="WIyWlLk6GJQsqaUBKTNV-1" edge="1">
          <mxGeometry width="50" height="50" relative="1" as="geometry">
            <mxPoint x="230" y="350" as="sourcePoint" />
            <mxPoint x="485.52" y="516.2" as="targetPoint" />
          </mxGeometry>
        </mxCell>
        <mxCell id="jfW_pCBlOSSHhbzhOIhk-10" value="&lt;font style=&quot;font-size: 18px;&quot;&gt;cognoms_propietari&lt;/font&gt;" style="ellipse;whiteSpace=wrap;html=1;" parent="WIyWlLk6GJQsqaUBKTNV-1" vertex="1">
          <mxGeometry x="480" y="490" width="240" height="80" as="geometry" />
        </mxCell>
        <mxCell id="WWac3u8rfrE2J9RRXrjS-0" value="" style="endArrow=none;html=1;rounded=0;entryX=0.013;entryY=0.382;entryDx=0;entryDy=0;entryPerimeter=0;exitX=0.929;exitY=0.982;exitDx=0;exitDy=0;exitPerimeter=0;" parent="WIyWlLk6GJQsqaUBKTNV-1" target="WWac3u8rfrE2J9RRXrjS-1" edge="1" source="jfW_pCBlOSSHhbzhOIhk-0">
          <mxGeometry width="50" height="50" relative="1" as="geometry">
            <mxPoint x="230" y="380" as="sourcePoint" />
            <mxPoint x="360" y="635" as="targetPoint" />
          </mxGeometry>
        </mxCell>
        <mxCell id="WWac3u8rfrE2J9RRXrjS-1" value="&lt;font style=&quot;font-size: 18px;&quot;&gt;telÃ¨fon_propietari&lt;/font&gt;" style="ellipse;whiteSpace=wrap;html=1;" parent="WIyWlLk6GJQsqaUBKTNV-1" vertex="1">
          <mxGeometry x="490" y="605" width="240" height="80" as="geometry" />
        </mxCell>
      </root>
    </mxGraphModel>
  </diagram>
</mxfile>
